<?xml version="1.0" encoding="UTF-8" standalone="yes"?>
<svg xmlns="http://www.w3.org/2000/svg" xmlns:xlink="http://www.w3.org/1999/xlink" width="100px" height="100px" viewBox="0 0 100 100" version="1.1" fill="#000000">
  <g id="surface99132">
    <path style=" stroke:none;fill-rule:nonzero;fill:#000000;fill-opacity:1;" d="M 50 4 C 24.636719 4 4 24.632812 4 50 C 4 75.367188 24.636719 96 50 96 C 75.363281 96 96 75.367188 96 50 C 96 43.148438 94.484375 36.648438 91.785156 30.800781 C 89.933594 33.824219 87.058594 36.148438 83.628906 37.261719 C 85.136719 41.230469 86 45.511719 86 50 C 86 69.851562 69.851562 86 50 86 C 30.148438 86 14 69.851562 14 50 C 14 30.148438 30.148438 14 50 14 C 55.398438 14 60.503906 15.226562 65.105469 17.367188 C 66.457031 14.046875 68.960938 11.324219 72.121094 9.683594 C 65.554688 6.0625 58.015625 4 50 4 Z M 79 12 C 72.925781 12 68 16.925781 68 23 C 68 29.074219 72.925781 34 79 34 C 85.074219 34 90 29.074219 90 23 C 90 16.925781 85.074219 12 79 12 Z M 50 30 C 38.953125 30 30 38.953125 30 50 C 30 61.046875 38.953125 70 50 70 C 61.046875 70 70 61.046875 70 50 C 70 38.953125 61.046875 30 50 30 Z M 50 30 "/>
  </g>
</svg>
